<svg id="_-_Icons_16x16" data-name="+- Icons 16x16" xmlns="http://www.w3.org/2000/svg" viewBox="0 0 16 16"><defs><style>.cls-1{fill:#fcfcfc;}</style></defs><title>calculator (+-)</title><g id="_-_16x16_" data-name="+- (16x16)"><g id="_-" data-name="-"><path class="cls-1" d="M14.87,6.94a2.15,2.15,0,0,1-.09.54c0,.18-.11.35-.15.53s-.06.54-.13,1c0,.06-.07.09-.16.09H12.82A16.89,16.89,0,0,0,11,9.18l-.36.05a1.86,1.86,0,0,1-.36,0c-.12,0-.17-.11-.17-.32a5.11,5.11,0,0,1,.22-1,9.62,9.62,0,0,1,.32-1,.17.17,0,0,1,.17-.1l.77,0,.78,0a15.46,15.46,0,0,0,1.79-.16l.61-.08C14.82,6.73,14.87,6.8,14.87,6.94Z"/><path class="cls-1" d="M14.74,5.6a.61.61,0,0,0-.24,0L14,5.69a13.12,13.12,0,0,1-1.65.15l-.71,0c-.37,0-.64,0-.83,0a1.31,1.31,0,0,0-1.21.77c-.05.13-.14.38-.36,1.1a5.41,5.41,0,0,0-.27,1.27,1.34,1.34,0,0,0,1.3,1.46,3,3,0,0,0,.55-.06,1.29,1.29,0,0,0,.28-.05c.75-.07,1.33-.11,1.75-.11h1.52a1.25,1.25,0,0,0,1.27-1s0,0,0-.07c.05-.38.1-.68.12-.93s.08-.27.11-.41A3.11,3.11,0,0,0,16,7,1.28,1.28,0,0,0,14.74,5.6Zm.58,2a3.62,3.62,0,0,0-.13.47c0,.23-.07.55-.14,1a.68.68,0,0,1-.71.54H12.82a15.42,15.42,0,0,0-1.8.12,1.53,1.53,0,0,0-.32,0,3,3,0,0,1-.46,0c-.27,0-.73-.18-.73-.89a4.82,4.82,0,0,1,.24-1.11c.21-.7.3-.93.34-1a.74.74,0,0,1,.69-.44c.18,0,.45,0,.8,0l.74,0a15.58,15.58,0,0,0,1.73-.14l.55-.08h.14a.7.7,0,0,1,.7.78A2.56,2.56,0,0,1,15.32,7.64Z"/></g><g id="_" data-name="+"><path class="cls-1" d="M6.81,8.87c-.22,0-.53,0-.93,0l-.94,0c0,.18,0,.52,0,1s0,.75,0,1-.34.26-1,.26S3,11,3,10.92c0-.28,0-.63,0-1.06q0-.9,0-1l-1.83,0c-.08,0-.12-.07-.12-.2s0-.3.07-.76c0-.26,0-.53,0-.81A.19.19,0,0,1,1.4,7l.84,0,.84,0c0-.39,0-.8,0-1.24V5.08c0-.09.05-.13.17-.13H4l.72,0C4.89,4.92,5,5,5,5s0,.55,0,1,0,.79,0,1L6.88,7C7,7,7,7.06,7,7.14s0,.32-.08.82a5,5,0,0,1,0,.82C6.89,8.84,6.86,8.87,6.81,8.87Z"/><path class="cls-1" d="M6.88,5.89H6.11c0-.38,0-.66,0-.87A1.27,1.27,0,0,0,4.68,3.79l-.74,0-.7,0a1.24,1.24,0,0,0-1.3,1.25v.79H1.4a1.31,1.31,0,0,0-1.14.64A1,1,0,0,0,.1,7c0,.27,0,.54,0,.8C0,8.54,0,8.6,0,8.65A1.26,1.26,0,0,0,1.25,10h.67c0,.38,0,.69,0,.95,0,1.29,1.52,1.29,2.09,1.29,1.75,0,2.12-.76,2.12-1.39,0-.22,0-.49,0-.84l.7,0A1.24,1.24,0,0,0,8,9.09,1.06,1.06,0,0,0,8,8.9a8.15,8.15,0,0,0,0-.92c.07-.71.07-.77.07-.84A1.24,1.24,0,0,0,6.88,5.89ZM7.51,8a5.05,5.05,0,0,1,0,.88.37.37,0,0,1,0,.09.65.65,0,0,1-.63.5l-.95,0H5.53c0,.12,0,.26,0,.4,0,.43,0,.77,0,1,0,.82-1.09.82-1.56.82s-1.53,0-1.53-.72c0-.28,0-.64,0-1.07,0-.18,0-.33,0-.46l-1.25,0a.7.7,0,0,1-.69-.77s0-.09.07-.75c0-.27,0-.55,0-.84A.48.48,0,0,1,.74,6.8a.77.77,0,0,1,.66-.37h.86a1.1,1.1,0,0,0,.24,0V5.08a.69.69,0,0,1,.74-.69l.71,0h.73c.85,0,.89.56.89.67s0,.57,0,1c0,.15,0,.29,0,.42l1.35,0a.68.68,0,0,1,.7.68C7.58,7.19,7.58,7.24,7.51,8Z"/></g></g></svg>