<svg xmlns="http://www.w3.org/2000/svg" viewBox="0 0 32 32"><defs><style>.cls-1{fill:#fcfcfc;}</style></defs><title>calculator (+-)</title><g id="_-_Icons_32x32" data-name="+- Icons 32x32"><g id="_-_32x32_" data-name="+- (32x32)"><g id="_-" data-name="+-"><g id="_--2" data-name="-"><path class="cls-1" d="M29.74,13.89A4.3,4.3,0,0,1,29.56,15c-.11.35-.21.71-.31,1.07s-.12,1.08-.25,1.91c0,.13-.13.19-.32.19H27.17l-1.53,0c-.92,0-2.16.09-3.72.25l-.71.11a5.11,5.11,0,0,1-.73.08c-.23,0-.35-.22-.35-.65A10.81,10.81,0,0,1,20.58,16a17.89,17.89,0,0,1,.64-1.93.33.33,0,0,1,.34-.21c.35,0,.86,0,1.55.05s1.2,0,1.54,0a30.38,30.38,0,0,0,3.58-.32c.88-.11,1.29-.17,1.23-.17C29.65,13.45,29.74,13.6,29.74,13.89Z"/><path class="cls-1" d="M29.47,11.21a1.72,1.72,0,0,0-.47,0l-1.06.14a27.5,27.5,0,0,1-3.29.29l-1.42,0c-.75-.05-1.29-.05-1.67-.05a2.58,2.58,0,0,0-2.41,1.56,17.65,17.65,0,0,0-.73,2.18,10.38,10.38,0,0,0-.54,2.55,2.67,2.67,0,0,0,2.6,2.91,5.22,5.22,0,0,0,1.1-.11l.57-.09a34.2,34.2,0,0,1,3.49-.23h1.51c.68,0,1.2,0,1.54,0a2.49,2.49,0,0,0,2.52-2s0-.09,0-.13c.12-.77.21-1.38.25-1.87.07-.27.16-.54.23-.81A6.16,6.16,0,0,0,32,13.89,2.54,2.54,0,0,0,29.47,11.21Zm1.18,4.08a4.86,4.86,0,0,0-.27.92c-.05.48-.14,1.11-.27,2a1.4,1.4,0,0,1-1.42,1.08c-.34,0-.86,0-1.54,0H25.64a31.13,31.13,0,0,0-3.61.24,5.11,5.11,0,0,0-.63.09,5,5,0,0,1-.92.09c-.54,0-1.47-.36-1.47-1.78a9.88,9.88,0,0,1,.5-2.23,16.19,16.19,0,0,1,.67-2.05,1.45,1.45,0,0,1,1.38-.88c.36,0,.9,0,1.6,0s1.17.05,1.49.05a32.14,32.14,0,0,0,3.45-.29l1.1-.16a1.14,1.14,0,0,1,.27,0,1.4,1.4,0,0,1,1.4,1.55A5.53,5.53,0,0,1,30.65,15.29Z"/></g><g id="_" data-name="+"><path class="cls-1" d="M13.63,17.75c-.45,0-1.08,0-1.87-.05s-1.52-.06-1.87-.06c0,.36,0,1,.06,2s0,1.5,0,2c0,.34-.66.51-2,.51s-1.93-.11-1.93-.33c0-.54,0-1.25,0-2.11,0-1.19,0-1.89,0-2.1l-3.66.1c-.16,0-.24-.13-.24-.41,0-.08.05-.59.13-1.5,0-.53,0-1.07.06-1.63A.39.39,0,0,1,2.8,14c.44,0,1,0,1.68,0l1.68.06q0-1.17,0-2.49V10.15c0-.17.12-.25.35-.25l1.45,0,1.43,0c.43,0,.64.07.64.22,0,.44,0,1.11,0,2s-.05,1.57-.05,2l3.85,0q.27,0,.27.24c0,.09,0,.64-.14,1.62a9.59,9.59,0,0,1-.08,1.65C13.77,17.69,13.71,17.75,13.63,17.75Z"/><path class="cls-1" d="M13.76,11.78c-.36,0-.86,0-1.54,0,0-.77,0-1.34,0-1.74,0-.93-.61-2.48-2.91-2.48l-1.49,0c-.61,0-1.08,0-1.4,0a2.49,2.49,0,0,0-2.59,2.5v1.58H2.8A2.6,2.6,0,0,0,.52,13,2,2,0,0,0,.2,14.08c0,.54,0,1.09-.06,1.6C0,17.08,0,17.2,0,17.31A2.53,2.53,0,0,0,2.5,20l1.33,0c0,.74,0,1.37,0,1.89,0,2.57,3.05,2.57,4.2,2.57,3.49,0,4.24-1.51,4.24-2.77,0-.43,0-1,0-1.67.57,0,1,0,1.4,0A2.48,2.48,0,0,0,16,18.19c0-.14,0-.25.07-.39A16.82,16.82,0,0,0,16.15,16c.13-1.42.13-1.53.13-1.66A2.49,2.49,0,0,0,13.76,11.78ZM15,15.93a10.83,10.83,0,0,1-.09,1.76.41.41,0,0,1,0,.18,1.29,1.29,0,0,1-1.26,1c-.45,0-1.1,0-1.89-.07l-.68,0c0,.24,0,.51,0,.81,0,.86,0,1.53,0,2,0,1.64-2.19,1.64-3.11,1.64-1.22,0-3.07,0-3.07-1.44,0-.56,0-1.28,0-2.14a8.74,8.74,0,0,1,0-.93l-2.51.07a1.39,1.39,0,0,1-1.37-1.53c0-.07,0-.18.13-1.51,0-.54,0-1.11.07-1.67a.91.91,0,0,1,.16-.52,1.49,1.49,0,0,1,1.31-.74c.45,0,1,0,1.71,0a4.53,4.53,0,0,0,.5,0V10.16A1.36,1.36,0,0,1,6.47,8.78l1.42,0,1.47,0c1.69,0,1.78,1.12,1.78,1.35,0,.45,0,1.13,0,2,0,.29,0,.59,0,.84l2.71-.05a1.35,1.35,0,0,1,1.39,1.38C15.15,14.38,15.15,14.49,15,15.93Z"/></g></g></g></g></svg>